{"title":"The Monster Squad 1987 DVDRip Xvid BigPerm LKRG","uid":6872165,"size":753186070,"categoryP":"video","categoryS":"movies","magnet":"?xt=urn:btih:7a8be83567c9ee6e40aee46a8f08df37d0078d35&amp;dn=The+Monster+Squad+1987+DVDRip+Xvid+BigPerm+LKRG&amp;tr=udp%3A%2F%2Ftracker.openbittorrent.com%3A80&amp;tr=udp%3A%2F%2Fopen.demonii.com%3A1337&amp;tr=udp%3A%2F%2Ftracker.coppersurfer.tk%3A6969&amp;tr=udp%3A%2F%2Fexodus.desync.com%3A6969","seeders":12,"leechers":0,"uploader":".BONE.","files":2,"time":1323308327,"description":"\nPLOT\n\nDracula is alive. In fact, he plans to rule the world and that is why he seeks the help of other legendary\nmonsters...\n &lt;a href=&quot;\nhttp://www.imdb.com/media/rm881365760/tt0093560&quot; rel=&quot;nofollow&quot; target=&quot;_NEW&quot;&gt;\nhttp://www.imdb.com/media/rm881365760/tt0093560&lt;/a&gt;\n\nEncoded By .......: BigPerm\nRuntime ..........: 1h 22mn\nFile Size ........: 718 MB\nResolution .......: 640x 256\nIMDb URL .........: http://www.imdb.com/title/tt0093560/\nSource ...........: DVD\nGenre ............: Action,Comedy,Family\nLanguage .........: English\nSubtitles ........: None\nVideo\nID : 0\nFormat : MPEG-4 Visual\nFormat profile : Advanced Simple@L5\nFormat settings, BVOP : Yes\nFormat settings, QPel : No\nFormat settings, GMC : No warppoints\nFormat settings, Matrix : Default (H.263)\nMuxing mode : Packed bitstream\nCodec ID : XVID\nCodec ID/Hint : XviD\nDuration : 1h 22mn\nBit rate : 987 Kbps\nWidth : 640 pixels\nHeight : 256 pixels\nDisplay aspect ratio : 2.500\nFrame rate : 29.970 fps\nColor space : YUV\nChroma subsampling : 4:2:0\nBit depth : 8 bits\nScan type : Progressive\nCompression mode : Lossy\nBits/(Pixel*Frame) : 0.201\nStream size : 580 MiB (81%)\nWriting library : XviD 64\nAudio\nID : 1\nFormat : AC-3\nFormat/Info : Audio Coding 3\nMode extension : CM (complete main)\nCodec ID : 2000\nDuration : 1h 22mn\nBit rate mode : Constant\nBit rate : 224 Kbps\nChannel(s) : 2 channels\nChannel positions : Front: L R\nSampling rate : 48.0 KHz\nBit depth : 16 bits\nCompression mode : Lossy\nStream size : 132 MiB (18%)\nAlignment : Split accross interleaves\nInterleave, duration : 33 ms (1.00 video frame)\nInterleave, preload duration : 500 ms","torrent":{"xt":"urn:btih:7a8be83567c9ee6e40aee46a8f08df37d0078d35","amp;dn":"The+Monster+Squad+1987+DVDRip+Xvid+BigPerm+LKRG","amp;tr":["udp%3A%2F%2Ftracker.openbittorrent.com%3A80","udp%3A%2F%2Fopen.demonii.com%3A1337","udp%3A%2F%2Ftracker.coppersurfer.tk%3A6969","udp%3A%2F%2Fexodus.desync.com%3A6969"],"infoHash":"7a8be83567c9ee6e40aee46a8f08df37d0078d35","infoHashBuffer":{"type":"Buffer","data":[122,139,232,53,103,201,238,110,64,174,228,106,143,8,223,55,208,7,141,53]},"announce":[],"urlList":[]}}